<svg width="50" height="50" viewBox="0 0 50 50" fill="none" xmlns="http://www.w3.org/2000/svg">
  <!-- Brain circle background -->
  <circle cx="25" cy="25" r="23" fill="#4F46E5" opacity="0.1"/>
  
  <!-- Brain outline -->
  <path d="M15 28C15 32.4183 18.5817 36 23 36H27C31.4183 36 35 32.4183 35 28C35 23.5817 31.4183 20 27 20H23C18.5817 20 15 23.5817 15 28Z" stroke="#4F46E5" stroke-width="2"/>
  
  <!-- Connection lines -->
  <path d="M25 14V42" stroke="#4F46E5" stroke-width="2" stroke-linecap="round"/>
  <path d="M19 24L31 32" stroke="#4F46E5" stroke-width="2" stroke-linecap="round"/>
  <path d="M31 24L19 32" stroke="#4F46E5" stroke-width="2" stroke-linecap="round"/>
  
  <!-- Dots -->
  <circle cx="25" cy="14" r="2" fill="#4F46E5"/>
  <circle cx="25" cy="42" r="2" fill="#4F46E5"/>
  <circle cx="19" cy="24" r="2" fill="#4F46E5"/>
  <circle cx="31" cy="32" r="2" fill="#4F46E5"/>
  <circle cx="31" cy="24" r="2" fill="#4F46E5"/>
  <circle cx="19" cy="32" r="2" fill="#4F46E5"/>
</svg>
